<svg xmlns="http://www.w3.org/2000/svg"
  style="width: 1em; height: 1em;vertical-align: middle;fill: currentColor;overflow: hidden;"
  viewBox="0 0 20 20"
  fill="none">
  <path d="M4.19875 15.8032C4.28953 15.889 4.39292 15.947 4.50891 15.9773C4.62491 16.0076 4.7409 16.0076 4.8569 15.9773C4.97289 15.947 5.07376 15.889 5.15949 15.8032L10.001 10.9577L14.8426 15.8032C14.9283 15.889 15.0292 15.947 15.1452 15.9773C15.2612 16.0076 15.3772 16.0076 15.4932 15.9773C15.6142 15.9521 15.7176 15.894 15.8033 15.8032C15.889 15.7174 15.9445 15.6164 15.9697 15.5003C16 15.3842 16 15.2681 15.9697 15.1521C15.9445 15.036 15.889 14.935 15.8033 14.8492L10.9618 9.99621L15.8033 5.15079C15.889 5.06498 15.947 4.96404 15.9773 4.84795C16.0076 4.73186 16.0076 4.61577 15.9773 4.49968C15.947 4.3836 15.889 4.28265 15.8033 4.19685C15.7125 4.10599 15.6091 4.04795 15.4932 4.02271C15.3772 3.99243 15.2612 3.99243 15.1452 4.02271C15.0292 4.04795 14.9283 4.10599 14.8426 4.19685L10.001 9.04227L5.15949 4.19685C5.07376 4.10599 4.97037 4.04795 4.84933 4.02271C4.73334 3.99243 4.61734 3.99243 4.50135 4.02271C4.38535 4.04795 4.28449 4.10599 4.19875 4.19685C4.11302 4.28265 4.05502 4.3836 4.02476 4.49968C3.99954 4.61577 3.99954 4.73186 4.02476 4.84795C4.05502 4.96404 4.11302 5.06498 4.19875 5.15079L9.04029 9.99621L4.19875 14.8492C4.11302 14.935 4.05502 15.036 4.02476 15.1521C3.9945 15.2681 3.99198 15.3842 4.01719 15.5003C4.04745 15.6164 4.10797 15.7174 4.19875 15.8032Z"
    fill="currentColor"/>
</svg>
